<?xml version="1.0" encoding="utf-8"?>
<!-- Generator: Adobe Adobe Illustrator 24.2.0, SVG Export Plug-In . SVG Version: 6.00 Build 0)  -->
<svg version="1.1" id="Layer_1" xmlns="http://www.w3.org/2000/svg" xmlns:xlink="http://www.w3.org/1999/xlink" x="0px" y="0px"
	 viewBox="0 0 60 60" style="enable-background:new 0 0 60 60;" xml:space="preserve">
<path d="M23.67,13.62c0.11-0.84-0.12-1.46-0.88-1.84c4.8,0,9.6,0,14.4,0c-0.01,0.04,0,0.09-0.02,0.1c-0.68,0.34-0.87,0.88-0.87,1.64
	c0.03,5.87,0.02,11.74,0.01,17.62c0,0.5,0.12,0.64,0.62,0.62c1.08-0.04,2.16-0.02,3.24-0.01c0.33,0,0.46-0.08,0.46-0.44
	c-0.01-6.1,0-12.2-0.02-18.3c0-0.27-0.21-0.55-0.38-0.79c-0.11-0.16-0.33-0.25-0.57-0.43c5.59,0,11.09,0,16.67,0
	c-0.16,0.09-0.26,0.16-0.37,0.21c-1.84,0.87-2.77,2.38-3.04,4.33c-0.08,0.6-0.1,1.21-0.1,1.81c-0.01,4.69,0.01,9.39-0.02,14.08
	c-0.01,0.72,0.2,1.16,0.86,1.39c0.08,0.03,0.15,0.09,0.3,0.19c-0.99,0.18-1.91,0.32-2.81,0.5c-5.68,1.15-10.7,3.68-15.12,7.41
	c-2.2,1.85-4.17,3.92-5.8,6.3c-0.22,0.31-0.29,0.25-0.48-0.01c-4.47-6.16-10.3-10.5-17.57-12.8c-1.89-0.6-3.88-0.89-5.82-1.32
	c-0.09-0.02-0.17-0.04-0.26-0.06c0.01-0.05,0.01-0.08,0.01-0.08c0.97-0.3,1.06-1.02,1.05-1.91c-0.04-4.89,0-9.78-0.04-14.67
	c-0.01-1.87-0.65-3.5-2.22-4.64c-0.37-0.27-0.79-0.46-1.23-0.72c5.55,0,11.05,0,16.56,0c-0.99,0.44-0.89,1.29-0.89,2.14
	c0.01,5.76,0.01,11.52,0,17.27c0,0.42,0.09,0.57,0.54,0.55c1.1-0.03,2.19-0.03,3.29,0c0.41,0.01,0.52-0.11,0.52-0.52
	C23.67,25.38,23.67,19.52,23.67,13.62z"/>
</svg>
